<svg id="Layer_1" data-name="Layer 1" xmlns="http://www.w3.org/2000/svg" viewBox="0 0 512 512"><defs><style>.cls-1{fill:#195e51;}.cls-2{fill:#165448;}.cls-3{fill:#fff;}</style></defs><path class="cls-1" d="M512,256c0,141.38-114.62,256-256,256S0,397.38,0,256,114.62,0,256,0,512,114.62,512,256"/><path class="cls-2" d="M479.07,191.34c5.88-6,12.64-13.11,18.28-20.9a255.41,255.41,0,0,0-18.66-40.81c-10.57,2.46-20.85,6.63-30.65,10.84-18.75,8-36.74,17.77-54.48,27.82q-15.46,8.75-30.5,18c26.39-42.5,40.77-92.51,36.65-142.19a256,256,0,0,0-36.25-20.53c-36.74,60.09-52.39,130-56.88,200l0,.12q-14.83,10.53-29.4,21.62a415.62,415.62,0,0,0-37.06,21.26c29.7-48.72,39.66-110.62,24.12-164.79a10.59,10.59,0,0,0-10.45-8,12.35,12.35,0,0,0-10.09,5.3,538.71,538.71,0,0,0-60.74,113.62c-7.75,19.87-16.11,41-18.9,62.29-2.42,18.42,3.12,29.8,17.19,39.28l.2.26a261.21,261.21,0,0,0-29.75,37.79,282.07,282.07,0,0,0-24.36,47.48c-2.07-72-1.94-144-6-216-.41-7.17-5.56-10.87-10.91-10.87a12,12,0,0,0-11.17,7.88c-20.54,51.88-54.35,101.62-53,159.52.86,38,15.24,75.22,38.22,105.59a256.21,256.21,0,0,0,45.89,33.08c6.87.57,13.8.86,20.73.86a276.5,276.5,0,0,0,100.52-19.27c37.21-14.7,68.87-39.3,82.9-77.79,2.63-7.18-4.09-14.22-11-14.22a9.91,9.91,0,0,0-2.79.4c-40.87,12-82.14,23.14-122.69,36.18C177,412,157,421.3,139.09,433.86a270.53,270.53,0,0,1,10.38-29.43c13.86-32.87,33.89-60.38,58.18-83.55a636.29,636.29,0,0,0,87.69,6.49c46.39,0,92.46-6.14,137.47-21.61,7.14-2.45,12.09-13.11,5-18.79-25.21-20-58.86-26-91.32-26h-1.86A362.83,362.83,0,0,0,430,228.18,198.22,198.22,0,0,0,479.07,191.34ZM68.68,333.56c1-36.25,16.51-69.7,32.23-102.56,2.41,68.71,2.35,137.49,5.24,206.17C82.5,408,67.69,371.28,68.68,333.56ZM210.18,425c30.35-9.15,60.8-18,91.23-26.89-14.81,20.5-37.68,34.4-61.65,43.09-28.06,10.17-59,16.52-89.43,16.52-1.82,0-3.64,0-5.46-.07C164,442.46,186.44,432.13,210.18,425Zm167-380.27C382,97,363.58,149.73,332,191.82,338.22,140.31,351.87,89.94,377.22,44.7ZM189.51,292.94c-2.26-1.95-3.59-4.36-3.74-8.79-.3-9,2.92-18.24,5.5-26.79a500.6,500.6,0,0,1,18.82-52.12,513.85,513.85,0,0,1,37.66-71.67C254.85,191.56,232.58,253.57,189.51,292.94Zm159.16-9.79c18.35,0,37.13,2.09,53.36,8.48C366.56,301.06,330.49,305,294.22,305a567.73,567.73,0,0,1-57.59-3.06,392.25,392.25,0,0,1,73-16.22A335.87,335.87,0,0,1,348.67,283.15Zm-31.21-39.74,0-.15A996.64,996.64,0,0,1,402.56,189c15.9-9,32-17.86,48.62-25.51,10-4.58,20.92-9.46,32.08-12-6,11.38-18.19,22.23-25.62,29.38-13.21,12.7-28.09,22.37-44.44,30.65C384,226.38,350.83,238.2,317.46,243.41Z"/><path class="cls-2" d="M148.48,65A2.31,2.31,0,0,0,148,65c-2,.4-2.42,2.52-2.74,5.35-.9,7.67-2.15,20.25-2.69,23.68,0,0-19,3.37-24.68,5.77-3.36,1.36-5.16,3.63-4.59,6.32.31,1.48,2.07,2.8,5.29,3.43,8.06,1.55,18.35,4.2,21.84,5-.11.1-4.18,21.51-2.36,27.73.84,2.83,2.29,4.7,4.26,4.7a3.12,3.12,0,0,0,.52,0c4.16-.55,14.07-19.57,17.32-25.1v0l.8-.11c3.63,2.43,23.11,16.05,27.92,16.05a1.9,1.9,0,0,0,.5-.06c1.79-.56,2.43-2.73,2-5.32-.89-6.36-12.22-21.72-14.81-25.59,0,0,10.7-10.45,16.23-15.88a4.55,4.55,0,0,0,1.63-4.64h0c-.44-1.85-2.59-2.72-5.43-2.72-.41,0-.84,0-1.27.06-6.59.32-20.13,4.33-23.74,5.63,0,0-6.44-11.26-10.48-19.1-1.74-3.31-3.3-5.15-5.05-5.15"/><path class="cls-2" d="M390.64,380.07c-1.36,0-2.14,1.38-3,3.23-2.44,5.32-6.28,14.1-7.46,16.44,0,0-11.92-1.66-17.59-1.66-.59,0-1.11,0-1.54.06-2.74.19-4.57,1.41-4.78,3.48-.12,1.14.83,2.5,3,3.71,5.44,3,12.24,7.3,14.58,8.66-.11,0-8,14.52-8.17,19.42-.06,2.43.66,4.21,2.35,4.48l.25,0c3.44,0,14.55-10.92,18.08-14.07h0l.61.11c2.12,2.7,13.76,18.1,16.73,18.15h0c1.41,0,2.38-1.41,2.68-3.36.84-4.79-3.73-18.5-4.7-21.9,0,0,10.15-5,15.39-7.65a3.47,3.47,0,0,0,2.27-3h0c.13-1.64-1.65-2.88-4.21-3.48-4.26-1.15-13.12-1.5-17.12-1.5l-1.29,0s-2-9.62-3.1-16.2c-.53-3.08-1.32-4.81-2.83-5l-.24,0"/><path class="cls-2" d="M81.37,135.07a11.35,11.35,0,1,0,11.34,11.35,11.35,11.35,0,0,0-11.34-11.35"/><path class="cls-2" d="M41.66,193a6.46,6.46,0,1,0,6.45,6.45A6.46,6.46,0,0,0,41.66,193"/><path class="cls-2" d="M337.23,443.81a13.61,13.61,0,1,0,13.6,13.6,13.6,13.6,0,0,0-13.6-13.6"/><path class="cls-2" d="M291.75,468.75a7,7,0,1,0,7,7,7,7,0,0,0-7-7"/><path class="cls-2" d="M465.05,238.48a10.95,10.95,0,1,0,10.95,11,10.94,10.94,0,0,0-10.95-11"/><path class="cls-2" d="M489.75,210.46a7.15,7.15,0,1,0,7.15,7.15,7.16,7.16,0,0,0-7.15-7.15"/><path class="cls-2" d="M488.14,276.47a5.54,5.54,0,1,0,5.54,5.54,5.55,5.55,0,0,0-5.54-5.54"/><path class="cls-2" d="M199.45,33.25a8.91,8.91,0,1,0,8.91,8.91,8.91,8.91,0,0,0-8.91-8.91"/><path class="cls-2" d="M240.7,62.27a8.71,8.71,0,1,0,8.71,8.7,8.71,8.71,0,0,0-8.71-8.7"/><path class="cls-2" d="M255.24,29.55a5,5,0,1,0,5,5,5,5,0,0,0-5-5"/><path class="cls-2" d="M96.93,77a4.22,4.22,0,1,0,4.22,4.22A4.22,4.22,0,0,0,96.93,77"/><path class="cls-2" d="M436.2,379.87a7.69,7.69,0,1,0,7.68,7.69,7.69,7.69,0,0,0-7.68-7.69"/><path class="cls-3" d="M145,362.27c-12.73-11.62-15.5-22.13-2.21-37.07L156,309.14c12.74-15.5,24.91-11.06,37.09-2.76,18.82,13.83,43.17,24.35,68.64,24.35,16.6,0,26-6.09,26-16.61,0-13.29-17.17-19.38-34.88-25.45-49.26-15-104.6-32.67-104.6-91.34,0-53.69,44.28-87.45,113.47-87.45,39.84,0,82.46,13.83,101.84,30.44,12.73,11.07,14.94,21,1.65,37.64l-11.62,14.39c-9.41,12.18-22.69,12.18-35.42,4.42-15.5-11.06-33.21-18.25-55.35-18.25-15.5,0-24.35,6.09-24.35,14.94,0,13.83,25.46,18.27,60.34,31C344.22,242.17,378,264.86,378,313c0,55.91-47.59,89.11-116.79,89.11C212.5,402.12,167.1,382.76,145,362.27Z"/></svg>